<svg width="1280" height="768" viewBox="0 0 1280 768" fill="none" xmlns="http://www.w3.org/2000/svg">
<g clip-path="url(#clip0)">
<rect width="1280" height="768" fill="white"/>
<rect width="250" height="768" fill="#F5F5FB"/>
<rect x="250.5" y="0.5" width="1029" height="44" fill="#F5F5FB" stroke="#EAEAEA"/>
<rect x="250.5" y="45.5" width="1029" height="89" fill="#F5F5FB" stroke="#EAEAEA"/>
<rect x="545.5" y="135.5" width="734" height="49" fill="#F5F5FB" stroke="#EAEAEA"/>
<rect x="545.5" y="185.5" width="244" height="582" fill="#F5F5FB" stroke="#EAEAEA"/>
<rect x="565" y="262" width="205" height="135" fill="#EAEAEA"/>
<rect x="565" y="409" width="205" height="135" fill="#EAEAEA"/>
<rect x="565" y="556" width="205" height="135" fill="#EAEAEA"/>
<rect x="789.5" y="185.5" width="244" height="582" fill="#F5F5FB" stroke="#EAEAEA"/>
<rect x="809" y="262" width="205" height="135" fill="#EAEAEA"/>
<rect x="809" y="409" width="205" height="135" fill="#EAEAEA"/>
<rect x="250.5" y="135.5" width="294" height="233" fill="#F5F5FB" stroke="#EAEAEA"/>
<rect x="250.5" y="369.5" width="294" height="398" fill="#F5F5FB" stroke="#EAEAEA"/>
<rect x="1034.5" y="185.5" width="244" height="582" fill="#F5F5FB" stroke="#EAEAEA"/>
<rect x="1053" y="262" width="205" height="135" fill="#EAEAEA"/>
<rect x="1053" y="409" width="205" height="135" fill="#EAEAEA"/>
<rect x="1053" y="556" width="205" height="135" fill="#EAEAEA"/>
<rect y="668" width="250" height="100" fill="#F5F5FB"/>
<rect y="518" width="250" height="150" fill="#F5F5FB" stroke="#EAEAEA" stroke-width="2"/>
<rect x="87" y="138" width="128" height="22" fill="#C4C4C4"/>
<rect x="332" y="415" width="128" height="22" fill="#C4C4C4"/>
<rect x="332" y="500" width="99" height="22" fill="#C4C4C4"/>
<rect x="332" y="670" width="99" height="22" fill="#C4C4C4"/>
<rect x="332" y="585" width="133" height="22" fill="#C4C4C4"/>
<rect x="331" y="444" width="111" height="22" fill="#C4C4C4"/>
<rect x="331" y="529" width="111" height="22" fill="#C4C4C4"/>
<rect x="331" y="699" width="111" height="22" fill="#C4C4C4"/>
<rect x="331" y="614" width="123" height="22" fill="#C4C4C4"/>
<rect x="280" y="79" width="128" height="22" fill="#C4C4C4"/>
<rect x="280" y="262" width="113" height="18" fill="#C4C4C4"/>
<rect x="565" y="151" width="113" height="18" fill="#C4C4C4"/>
<rect x="565" y="206" width="113" height="18" fill="#C4C4C4"/>
<rect x="577" y="275" width="113" height="14" fill="#C4C4C4"/>
<rect x="822" y="275" width="113" height="14" fill="#C4C4C4"/>
<rect x="822" y="421" width="113" height="14" fill="#C4C4C4"/>
<rect x="1067" y="275" width="99" height="14" fill="#C4C4C4"/>
<rect x="1067" y="567" width="91" height="14" fill="#C4C4C4"/>
<rect x="1067" y="421" width="118" height="14" fill="#C4C4C4"/>
<rect x="577" y="421" width="97" height="14" fill="#C4C4C4"/>
<rect x="577" y="567" width="113" height="14" fill="#C4C4C4"/>
<rect x="577" y="295" width="101" height="14" fill="#C4C4C4"/>
<rect x="822" y="295" width="79" height="14" fill="#C4C4C4"/>
<rect x="822" y="441" width="79" height="14" fill="#C4C4C4"/>
<rect x="1067" y="295" width="71" height="14" fill="#C4C4C4"/>
<rect x="1067" y="587" width="85" height="14" fill="#C4C4C4"/>
<rect x="1067" y="441" width="85" height="14" fill="#C4C4C4"/>
<rect x="577" y="441" width="105" height="14" fill="#C4C4C4"/>
<rect x="577" y="587" width="101" height="14" fill="#C4C4C4"/>
<rect x="577" y="333" width="172" height="9" fill="#C4C4C4"/>
<rect x="822" y="333" width="172" height="9" fill="#C4C4C4"/>
<rect x="822" y="479" width="147" height="9" fill="#C4C4C4"/>
<rect x="1067" y="333" width="172" height="9" fill="#C4C4C4"/>
<rect x="1067" y="625" width="164" height="9" fill="#C4C4C4"/>
<rect x="1067" y="479" width="172" height="9" fill="#C4C4C4"/>
<rect x="577" y="479" width="161" height="9" fill="#C4C4C4"/>
<rect x="577" y="625" width="162" height="9" fill="#C4C4C4"/>
<rect x="577" y="351" width="144" height="9" fill="#C4C4C4"/>
<rect x="822" y="351" width="152" height="9" fill="#C4C4C4"/>
<rect x="822" y="497" width="131" height="9" fill="#C4C4C4"/>
<rect x="1067" y="351" width="164" height="9" fill="#C4C4C4"/>
<rect x="1067" y="643" width="145" height="9" fill="#C4C4C4"/>
<rect x="1067" y="497" width="113" height="9" fill="#C4C4C4"/>
<rect x="577" y="497" width="151" height="9" fill="#C4C4C4"/>
<rect x="577" y="643" width="144" height="9" fill="#C4C4C4"/>
<rect x="577" y="369" width="157" height="9" fill="#C4C4C4"/>
<rect x="822" y="369" width="72" height="9" fill="#C4C4C4"/>
<rect x="822" y="515" width="93" height="9" fill="#C4C4C4"/>
<rect x="1067" y="369" width="129" height="9" fill="#C4C4C4"/>
<rect x="1067" y="661" width="155" height="9" fill="#C4C4C4"/>
<rect x="1067" y="515" width="137" height="9" fill="#C4C4C4"/>
<rect x="577" y="515" width="63" height="9" fill="#C4C4C4"/>
<rect x="577" y="661" width="151" height="9" fill="#C4C4C4"/>
<rect x="809" y="206" width="113" height="18" fill="#C4C4C4"/>
<rect x="1053" y="206" width="113" height="18" fill="#C4C4C4"/>
<rect x="713" y="151" width="113" height="18" fill="#C4C4C4"/>
<rect x="861" y="151" width="113" height="18" fill="#C4C4C4"/>
<rect x="1009" y="151" width="113" height="18" fill="#C4C4C4"/>
<rect x="280" y="293" width="142" height="18" fill="#C4C4C4"/>
<rect x="280" y="324" width="102" height="18" fill="#C4C4C4"/>
<rect x="87" y="209" width="128" height="22" fill="#C4C4C4"/>
<rect x="87" y="280" width="128" height="22" fill="#C4C4C4"/>
<rect x="87" y="351" width="128" height="22" fill="#C4C4C4"/>
<rect x="87" y="562" width="128" height="22" fill="#C4C4C4"/>
<rect x="87" y="618" width="128" height="22" fill="#C4C4C4"/>
<rect x="87" y="706" width="128" height="22" fill="#C4C4C4"/>
<circle cx="52.5" cy="149.5" r="17.5" fill="#C4C4C4"/>
<circle cx="297.5" cy="437.5" r="17.5" fill="#C4C4C4"/>
<circle cx="297.5" cy="522.5" r="17.5" fill="#C4C4C4"/>
<circle cx="297.5" cy="692.5" r="17.5" fill="#C4C4C4"/>
<circle cx="297.5" cy="607.5" r="17.5" fill="#C4C4C4"/>
<circle cx="323.5" cy="203.5" r="43.5" fill="#C4C4C4"/>
<circle cx="1242.5" cy="22.5" r="15.5" fill="#C4C4C4"/>
<circle cx="1182.5" cy="22.5" r="10.5" fill="#C4C4C4"/>
<circle cx="1146.5" cy="22.5" r="10.5" fill="#C4C4C4"/>
<circle cx="1110.5" cy="22.5" r="10.5" fill="#C4C4C4"/>
<circle cx="1074.5" cy="22.5" r="10.5" fill="#C4C4C4"/>
<circle cx="759.5" cy="215.5" r="10.5" fill="#C4C4C4"/>
<circle cx="1003.5" cy="215.5" r="10.5" fill="#C4C4C4"/>
<circle cx="1247.5" cy="215.5" r="10.5" fill="#C4C4C4"/>
<circle cx="52.5" cy="220.5" r="17.5" fill="#C4C4C4"/>
<circle cx="52.5" cy="291.5" r="17.5" fill="#C4C4C4"/>
<circle cx="52.5" cy="362.5" r="17.5" fill="#C4C4C4"/>
<circle cx="52.5" cy="573.5" r="17.5" fill="#C4C4C4"/>
<circle cx="52.5" cy="629.5" r="17.5" fill="#C4C4C4"/>
<circle cx="52.5" cy="717.5" r="17.5" fill="#C4C4C4"/>
<path d="M15.7793 26.8818H21.3779V29H13.1426V16.2031H15.7793V26.8818ZM32.8477 22.8916C32.8477 24.1514 32.625 25.2559 32.1797 26.2051C31.7344 27.1543 31.0957 27.8867 30.2637 28.4023C29.4375 28.918 28.4883 29.1758 27.416 29.1758C26.3555 29.1758 25.4092 28.9209 24.5771 28.4111C23.7451 27.9014 23.1006 27.1748 22.6436 26.2314C22.1865 25.2822 21.9551 24.1924 21.9492 22.9619V22.3291C21.9492 21.0693 22.1748 19.9619 22.626 19.0068C23.083 18.0459 23.7246 17.3105 24.5508 16.8008C25.3828 16.2852 26.332 16.0273 27.3984 16.0273C28.4648 16.0273 29.4111 16.2852 30.2373 16.8008C31.0693 17.3105 31.7109 18.0459 32.1621 19.0068C32.6191 19.9619 32.8477 21.0664 32.8477 22.3203V22.8916ZM30.1758 22.3115C30.1758 20.9697 29.9355 19.9502 29.4551 19.2529C28.9746 18.5557 28.2891 18.207 27.3984 18.207C26.5137 18.207 25.8311 18.5527 25.3506 19.2441C24.8701 19.9297 24.627 20.9375 24.6211 22.2676V22.8916C24.6211 24.1982 24.8613 25.2119 25.3418 25.9326C25.8223 26.6533 26.5137 27.0137 27.416 27.0137C28.3008 27.0137 28.9805 26.668 29.4551 25.9766C29.9297 25.2793 30.1699 24.2656 30.1758 22.9355V22.3115ZM44.8887 27.3828C44.4141 27.9512 43.7432 28.3936 42.876 28.71C42.0088 29.0205 41.0479 29.1758 39.9932 29.1758C38.8857 29.1758 37.9131 28.9355 37.0752 28.4551C36.2432 27.9688 35.5986 27.2656 35.1416 26.3457C34.6904 25.4258 34.459 24.3447 34.4473 23.1025V22.2324C34.4473 20.9551 34.6611 19.8506 35.0889 18.9189C35.5225 17.9814 36.1436 17.2666 36.9521 16.7744C37.7666 16.2764 38.7188 16.0273 39.8086 16.0273C41.3262 16.0273 42.5127 16.3906 43.3682 17.1172C44.2236 17.8379 44.7305 18.8896 44.8887 20.2725H42.3223C42.2051 19.54 41.9443 19.0039 41.54 18.6641C41.1416 18.3242 40.5908 18.1543 39.8877 18.1543C38.9912 18.1543 38.3086 18.4912 37.8398 19.165C37.3711 19.8389 37.1338 20.8408 37.1279 22.1709V22.9883C37.1279 24.3301 37.3828 25.3438 37.8926 26.0293C38.4023 26.7148 39.1494 27.0576 40.1338 27.0576C41.124 27.0576 41.8301 26.8467 42.252 26.4248V24.2188H39.8525V22.2764H44.8887V27.3828ZM57.5449 22.8916C57.5449 24.1514 57.3223 25.2559 56.877 26.2051C56.4316 27.1543 55.793 27.8867 54.9609 28.4023C54.1348 28.918 53.1855 29.1758 52.1133 29.1758C51.0527 29.1758 50.1064 28.9209 49.2744 28.4111C48.4424 27.9014 47.7979 27.1748 47.3408 26.2314C46.8838 25.2822 46.6523 24.1924 46.6465 22.9619V22.3291C46.6465 21.0693 46.8721 19.9619 47.3232 19.0068C47.7803 18.0459 48.4219 17.3105 49.248 16.8008C50.0801 16.2852 51.0293 16.0273 52.0957 16.0273C53.1621 16.0273 54.1084 16.2852 54.9346 16.8008C55.7666 17.3105 56.4082 18.0459 56.8594 19.0068C57.3164 19.9619 57.5449 21.0664 57.5449 22.3203V22.8916ZM54.873 22.3115C54.873 20.9697 54.6328 19.9502 54.1523 19.2529C53.6719 18.5557 52.9863 18.207 52.0957 18.207C51.2109 18.207 50.5283 18.5527 50.0479 19.2441C49.5674 19.9297 49.3242 20.9375 49.3184 22.2676V22.8916C49.3184 24.1982 49.5586 25.2119 50.0391 25.9326C50.5195 26.6533 51.2109 27.0137 52.1133 27.0137C52.998 27.0137 53.6777 26.668 54.1523 25.9766C54.627 25.2793 54.8672 24.2656 54.873 22.9355V22.3115Z" fill="#C4C4C4"/>
</g>
<defs>
<clipPath id="clip0">
<rect width="1280" height="768" fill="white"/>
</clipPath>
</defs>
</svg>
